<?xml version="1.0" encoding="UTF-8"?>
<svg xmlns="http://www.w3.org/2000/svg" viewBox="0 0 100 140">
  <path d="M50,120 Q20,90 14,52 Q34,84 52,108" fill="#7cb342" stroke="#33691e" stroke-width="2" stroke-linejoin="round"/>
  <path d="M50,122 Q82,92 88,56 Q66,86 50,110" fill="#7cb342" stroke="#33691e" stroke-width="2" stroke-linejoin="round"/>
  <path d="M50,124 Q40,80 46,40 Q52,80 54,118" fill="#8bc34a" stroke="#33691e" stroke-width="2" stroke-linejoin="round"/>
  <path d="M50,126 L46,44 M50,126 L56,52 M50,126 L44,58" fill="none" stroke="#558b2f" stroke-width="2.5" stroke-linecap="round"/>
  <g fill="#e3c34a" stroke="#a8841f" stroke-width="1">
    <path d="M46,44 Q40,30 34,20 Q40,26 46,38 Z"/>
    <ellipse cx="34" cy="20" rx="3.5" ry="5"/>
    <ellipse cx="38" cy="27" rx="3.2" ry="4.6"/>
    <ellipse cx="42" cy="34" rx="3" ry="4.4"/>
    <path d="M56,52 Q62,36 70,26 Q62,34 55,46 Z"/>
    <ellipse cx="70" cy="26" rx="3.5" ry="5"/>
    <ellipse cx="65" cy="33" rx="3.2" ry="4.6"/>
    <ellipse cx="61" cy="40" rx="3" ry="4.4"/>
    <path d="M44,58 Q42,40 44,28 Q48,40 50,54 Z"/>
    <ellipse cx="44" cy="28" rx="3.4" ry="5"/>
    <ellipse cx="45" cy="36" rx="3.1" ry="4.6"/>
  </g>
  <path d="M8,128 H92" stroke="#4fc3f7" stroke-width="3" stroke-linecap="round"/>
</svg>
