<?xml version="1.0" encoding="UTF-8"?>
<svg xmlns="http://www.w3.org/2000/svg" viewBox="0 0 55.92 83.87">
  <path d="M27.96,1.12c10,5,20,15,25,30s0,30-10,40-20,10-30,0S-2.04,46.12,2.96,31.12,17.96,6.12,27.96,1.12Z" stroke="#2e7d32" fill="#81c784" stroke-width="2px"/>
  <path d="M27.96,3.12v70" stroke-linecap="round" stroke="#1b5e20" stroke-width="1.5px"/>
  <path d="M27.96,19.12l13.8-4.6" stroke="#2e7d32" stroke-linecap="round"/>
  <path d="M27.96,31.12l22-5" stroke="#2e7d32" stroke-linecap="round"/>
  <path d="M27.96,43.12l20-2" stroke="#2e7d32" stroke-linecap="round"/>
  <path d="M27.96,56.12l18,3" stroke="#2e7d32" stroke-linecap="round"/>
  <path d="M27.96,19.12l-11-3.7" stroke="#2e7d32" stroke-linecap="round"/>
  <path d="M27.96,31.12l-22-5" stroke="#2e7d32" stroke-linecap="round"/>
  <path d="M27.96,43.12l-20-2" stroke="#2e7d32" stroke-linecap="round"/>
  <path d="M27.96,56.12l-18,3" stroke="#2e7d32" stroke-linecap="round"/>
  <path d="M27.96,73.12v10" stroke-linecap="round" stroke="#1b5e20" stroke-width="1.5px"/>
</svg>
