<svg xmlns="http://www.w3.org/2000/svg" viewBox="0 0 200 200" width="200" height="200">
  <circle cx="100" cy="100" r="60" fill="none" stroke="#4fc3f7" stroke-width="2.2" stroke-dasharray="0" stroke-linecap="round"/>

  <g stroke="#1f2937" stroke-width="2.2" stroke-linejoin="round" stroke-linecap="round">
    <path d="M150 70 a60 60 0 0 1 14 38 l5 -2 -7 11 -9 -10 6 0 a52 52 0 0 0 -12 -33 z" fill="#37536b"/>
    <path d="M150 150 a60 60 0 0 1 -50 10 l1 6 -12 -6 11 -8 0 6 a52 52 0 0 0 43 -9 z" fill="#37536b"/>
    <path d="M50 130 a60 60 0 0 1 -10 -55 l-6 -1 9 -11 6 12 -6 -1 a52 52 0 0 0 9 47 z" fill="#37536b"/>
    <path d="M62 47 a60 60 0 0 1 56 -5 l3 -5 4 13 -14 -3 5 -3 a52 52 0 0 0 -49 4 z" fill="#37536b"/>
  </g>

  <g stroke="#1f2937" stroke-width="2.2" stroke-linejoin="round" stroke-linecap="round">
    <ellipse cx="100" cy="38" rx="20" ry="8" fill="#4fc3f7"/>
    <ellipse cx="91" cy="34" rx="3" ry="6" fill="#5d4632"/>
    <ellipse cx="97" cy="33" rx="3" ry="6" fill="#5d4632"/>
    <ellipse cx="103" cy="33" rx="3" ry="6" fill="#5d4632"/>
    <ellipse cx="109" cy="34" rx="3" ry="6" fill="#5d4632"/>
    <ellipse cx="94" cy="33" rx="3" ry="6" fill="#8d6e4f"/>
    <ellipse cx="100" cy="32" rx="3" ry="6" fill="#8d6e4f"/>
    <ellipse cx="106" cy="33" rx="3" ry="6" fill="#8d6e4f"/>
  </g>

  <g stroke="#1f2937" stroke-width="2.2" stroke-linejoin="round" stroke-linecap="round">
    <path d="M162 92 q14 -6 12 4 q-2 8 -10 6 q8 6 0 12 q-9 6 -14 -2 q12 0 8 -8 q-4 -8 4 -12 z" fill="#7cb342"/>
    <circle cx="165" cy="95" r="2.5" fill="#1f2937" stroke="none"/>
    <path d="M174 84 l5 -7 M178 88 l6 -4" stroke="#5d4632" stroke-width="1.6"/>
  </g>

  <g stroke="#1f2937" stroke-width="2.2" stroke-linejoin="round" stroke-linecap="round">
    <path d="M152 150 q12 -2 12 10 q0 11 -11 11 q-9 0 -9 -8 q0 -7 6 -7 q5 0 4 4 q-1 3 -4 2" fill="#2e7d32"/>
    <circle cx="156" cy="153" r="2.5" fill="#1f2937" stroke="none"/>
    <path d="M163 147 l5 -5 M166 151 l6 -3" stroke="#5d4632" stroke-width="1.6"/>
  </g>

  <g stroke="#1f2937" stroke-width="2.2" stroke-linejoin="round" stroke-linecap="round">
    <ellipse cx="48" cy="118" rx="11" ry="7" fill="#7d8389"/>
    <ellipse cx="42" cy="124" rx="6" ry="4" fill="#7d8389"/>
    <path d="M56 114 l16 -10 M56 122 l16 6" stroke="#7d8389" stroke-width="1.8"/>
    <path d="M40 112 q-8 -10 -16 -6 M40 116 q-10 -2 -18 6" fill="none" stroke="#5d4632" stroke-width="1.6"/>
    <ellipse cx="50" cy="115" rx="2.5" ry="3.5" fill="#1f2937" stroke="none"/>
  </g>

  <g fill="none" stroke="#1f2937" stroke-width="1.4" stroke-linecap="round">
    <path d="M88 56 q-12 6 -20 16"/>
    <path d="M50 92 q4 14 14 22"/>
    <path d="M114 56 q12 6 20 16"/>
  </g>
</svg>
