<svg xmlns="http://www.w3.org/2000/svg" viewBox="0 0 190 170" width="190" height="170">
  <path d="M40 78 C30 60 42 38 64 32 C72 18 96 16 110 24 C128 18 150 26 156 44 C172 50 174 72 162 84 C168 96 160 112 144 114 C140 124 124 128 112 122 C100 130 80 128 72 118 C54 120 40 108 42 92 C36 90 36 84 40 78 Z" fill="#f3a6b5" stroke="#1f2937" stroke-width="2.4" stroke-linejoin="round" stroke-linecap="round"/>
  <path d="M58 40 C62 48 56 54 62 62" fill="none" stroke="#1f2937" stroke-width="2" stroke-linejoin="round" stroke-linecap="round"/>
  <path d="M78 30 C82 40 74 48 82 58 C76 66 84 74 78 84" fill="none" stroke="#1f2937" stroke-width="2" stroke-linejoin="round" stroke-linecap="round"/>
  <path d="M100 26 C104 38 96 46 104 56 C98 66 106 76 100 88 C106 98 98 106 102 116" fill="none" stroke="#1f2937" stroke-width="2" stroke-linejoin="round" stroke-linecap="round"/>
  <path d="M124 28 C128 40 120 48 128 58 C122 68 130 78 124 90 C130 100 122 108 126 116" fill="none" stroke="#1f2937" stroke-width="2" stroke-linejoin="round" stroke-linecap="round"/>
  <path d="M146 40 C150 50 142 58 150 68 C144 78 152 86 146 96" fill="none" stroke="#1f2937" stroke-width="2" stroke-linejoin="round" stroke-linecap="round"/>
  <path d="M48 70 C40 74 42 86 50 88" fill="none" stroke="#1f2937" stroke-width="2" stroke-linejoin="round" stroke-linecap="round"/>
  <path d="M46 116 C32 116 24 128 30 140 C36 152 56 152 60 140 C70 144 76 132 70 124 C66 116 54 114 46 116 Z" fill="#e98aa0" stroke="#1f2937" stroke-width="2.4" stroke-linejoin="round" stroke-linecap="round"/>
  <path d="M40 120 C36 128 40 134 38 142" fill="none" stroke="#1f2937" stroke-width="1.8" stroke-linejoin="round" stroke-linecap="round"/>
  <path d="M50 118 C46 126 50 132 48 144" fill="none" stroke="#1f2937" stroke-width="1.8" stroke-linejoin="round" stroke-linecap="round"/>
  <path d="M60 120 C56 128 60 134 58 142" fill="none" stroke="#1f2937" stroke-width="1.8" stroke-linejoin="round" stroke-linecap="round"/>
  <path d="M58 138 C56 148 60 156 56 164 C54 158 50 156 50 150 C50 146 54 142 58 138 Z" fill="#e98aa0" stroke="#1f2937" stroke-width="2.4" stroke-linejoin="round" stroke-linecap="round"/>
</svg>
