<svg xmlns="http://www.w3.org/2000/svg" viewBox="0 0 120 150">
  <ellipse cx="60" cy="100" rx="32" ry="40" fill="#8d6e4f" stroke="#1f2937" stroke-width="2.5" stroke-linejoin="round"/>
  <ellipse cx="60" cy="108" rx="18" ry="26" fill="#c49a6c" stroke="#5d4632" stroke-width="1.5" stroke-linejoin="round"/>
  <line x1="48" y1="98" x2="72" y2="98" stroke="#8d6e4f" stroke-width="1.5" stroke-linecap="round"/>
  <line x1="46" y1="106" x2="74" y2="106" stroke="#8d6e4f" stroke-width="1.5" stroke-linecap="round"/>
  <line x1="48" y1="114" x2="72" y2="114" stroke="#8d6e4f" stroke-width="1.5" stroke-linecap="round"/>
  <line x1="50" y1="122" x2="70" y2="122" stroke="#8d6e4f" stroke-width="1.5" stroke-linecap="round"/>
  <path d="M28 90 Q22 95 20 110 Q20 128 30 135 Q38 140 48 138 Q60 136 60 130 Q60 115 58 100 Q50 90 28 90" fill="#7a5c3a" stroke="#1f2937" stroke-width="2.5" stroke-linejoin="round" stroke-linecap="round"/>
  <path d="M92 90 Q98 95 100 110 Q100 128 90 135 Q82 140 72 138 Q60 136 60 130 Q60 115 62 100 Q70 90 92 90" fill="#7a5c3a" stroke="#1f2937" stroke-width="2.5" stroke-linejoin="round" stroke-linecap="round"/>
  <path d="M44 138 Q52 148 60 148 Q68 148 76 138 Q68 144 60 144 Q52 144 44 138" fill="#7a5c3a" stroke="#1f2937" stroke-width="2" stroke-linejoin="round" stroke-linecap="round"/>
  <ellipse cx="60" cy="58" rx="30" ry="28" fill="#8d6e4f" stroke="#1f2937" stroke-width="2.5" stroke-linejoin="round"/>
  <ellipse cx="60" cy="60" rx="24" ry="22" fill="#c49a6c" stroke="#5d4632" stroke-width="2" stroke-linejoin="round"/>
  <polygon points="38,35 33,12 45,30" fill="#8d6e4f" stroke="#1f2937" stroke-width="2.5" stroke-linejoin="round"/>
  <polygon points="39,33 35,17 44,30" fill="#7a5c3a" stroke="none"/>
  <polygon points="82,35 87,12 75,30" fill="#8d6e4f" stroke="#1f2937" stroke-width="2.5" stroke-linejoin="round"/>
  <polygon points="81,33 85,17 76,30" fill="#7a5c3a" stroke="none"/>
  <circle cx="47" cy="60" r="12" fill="#fbbf24" stroke="#1f2937" stroke-width="2.5"/>
  <circle cx="73" cy="60" r="12" fill="#fbbf24" stroke="#1f2937" stroke-width="2.5"/>
  <circle cx="47" cy="60" r="7" fill="#1f2937" stroke="#1f2937" stroke-width="1"/>
  <circle cx="73" cy="60" r="7" fill="#1f2937" stroke="#1f2937" stroke-width="1"/>
  <circle cx="44" cy="57" r="2.5" fill="#ffffff" stroke="none"/>
  <circle cx="70" cy="57" r="2.5" fill="#ffffff" stroke="none"/>
  <path d="M54 68 Q60 66 66 68 Q62 78 60 78 Q58 78 54 68" fill="#fbbf24" stroke="#1f2937" stroke-width="2" stroke-linejoin="round"/>
  <path d="M60 76 Q58 80 59 82 Q61 80 62 76" fill="#b45309" stroke="#1f2937" stroke-width="1.5" stroke-linejoin="round" stroke-linecap="round"/>
  <rect x="46" y="135" width="5" height="12" rx="2" fill="#8d6e4f" stroke="#1f2937" stroke-width="2" stroke-linejoin="round"/>
  <rect x="69" y="135" width="5" height="12" rx="2" fill="#8d6e4f" stroke="#1f2937" stroke-width="2" stroke-linejoin="round"/>
  <path d="M48 147 Q42 148 38 150" stroke="#5d4632" stroke-width="2.5" fill="none" stroke-linecap="round"/>
  <path d="M48 147 Q45 151 44 154" stroke="#5d4632" stroke-width="2.5" fill="none" stroke-linecap="round"/>
  <path d="M48 147 Q49 152 50 155" stroke="#5d4632" stroke-width="2.5" fill="none" stroke-linecap="round"/>
  <path d="M48 147 Q53 149 56 150" stroke="#5d4632" stroke-width="2.5" fill="none" stroke-linecap="round"/>
  <path d="M72 147 Q78 148 82 150" stroke="#5d4632" stroke-width="2.5" fill="none" stroke-linecap="round"/>
  <path d="M72 147 Q75 151 76 154" stroke="#5d4632" stroke-width="2.5" fill="none" stroke-linecap="round"/>
  <path d="M72 147 Q71 152 70 155" stroke="#5d4632" stroke-width="2.5" fill="none" stroke-linecap="round"/>
  <path d="M72 147 Q67 149 64 150" stroke="#5d4632" stroke-width="2.5" fill="none" stroke-linecap="round"/>
  <rect x="10" y="140" width="100" height="8" rx="4" fill="#8d6e4f" stroke="#5d4632" stroke-width="2" stroke-linejoin="round"/>
</svg>
