<svg xmlns="http://www.w3.org/2000/svg" viewBox="0 0 160 200" width="160" height="200">
  <ellipse cx="80" cy="186" rx="44" ry="8" fill="#3f4348" stroke="none"/>
  <path d="M44 40 L116 40 L108 178 Q108 184 102 184 L58 184 Q52 184 52 178 Z" fill="#eef3f6" stroke="#1f2937" stroke-width="3" stroke-linejoin="round" stroke-linecap="round"/>
  <path d="M47 70 L113 70 L107 174 Q107 178 102 178 L58 178 Q53 178 53 174 Z" fill="#fbbf24" stroke="none"/>
  <path d="M47 70 L113 70 L112.4 80 L47.6 80 Z" fill="#fcd062" stroke="none"/>
  <path d="M51 84 Q60 80 70 84 Q80 88 90 84 Q100 80 109 84 L108.4 94 Q100 90 90 94 Q80 98 70 94 Q60 90 51.6 94 Z" fill="#fbbf24" stroke="none"/>
  <ellipse cx="80" cy="70" rx="33" ry="6" fill="#ef6c00" stroke="#1f2937" stroke-width="2.5"/>
  <ellipse cx="80" cy="70" rx="27" ry="4.2" fill="#fbbf24" stroke="none"/>
  <path d="M44 40 L116 40 L114.5 52 L45.5 52 Z" fill="#ffffff" stroke="#1f2937" stroke-width="3" stroke-linejoin="round" stroke-linecap="round" fill-opacity="0.55"/>
  <path d="M62 96 Q66 92 70 96 L70 168 Q66 172 62 168 Z" fill="#ffffff" stroke="none" fill-opacity="0.35"/>
</svg>
